<svg xmlns="http://www.w3.org/2000/svg" xmlns:xlink="http://www.w3.org/1999/xlink" width="500" zoomAndPan="magnify" viewBox="0 0 375 374.999991" height="500" preserveAspectRatio="xMidYMid meet" version="1.0"><defs><clipPath id="eff49f53ff"><path d="M 32 44 L 345 44 L 345 287.25 L 32 287.25 Z M 32 44 " clip-rule="nonzero"/></clipPath><clipPath id="200b8f8439"><path d="M 276.789062 134.957031 C 276.648438 133.296875 276.464844 131.636719 276.238281 129.984375 C 276.015625 128.332031 275.75 126.6875 275.441406 125.046875 C 275.132812 123.40625 274.785156 121.777344 274.394531 120.15625 C 274.003906 118.53125 273.574219 116.921875 273.105469 115.320312 C 272.632812 113.722656 272.121094 112.132812 271.570312 110.558594 C 271.019531 108.984375 270.429688 107.425781 269.800781 105.878906 C 269.171875 104.335938 268.503906 102.808594 267.796875 101.296875 C 267.089844 99.785156 266.34375 98.292969 265.5625 96.820312 C 264.78125 95.34375 263.964844 93.890625 263.109375 92.460938 C 262.253906 91.027344 261.363281 89.617188 260.4375 88.230469 C 259.511719 86.84375 258.550781 85.480469 257.554688 84.140625 C 256.558594 82.800781 255.53125 81.488281 254.472656 80.199219 C 253.410156 78.914062 252.316406 77.652344 251.191406 76.421875 C 250.066406 75.1875 248.914062 73.984375 247.726562 72.808594 C 246.542969 71.636719 245.328125 70.492188 244.085938 69.378906 C 242.84375 68.265625 241.574219 67.183594 240.277344 66.136719 C 238.976562 65.085938 237.65625 64.070312 236.308594 63.089844 C 234.957031 62.105469 233.585938 61.160156 232.191406 60.246094 C 230.792969 59.332031 229.375 58.453125 227.933594 57.613281 C 226.492188 56.769531 225.035156 55.964844 223.550781 55.199219 C 222.070312 54.429688 220.570312 53.699219 219.054688 53.007812 C 217.535156 52.3125 216 51.660156 214.449219 51.042969 C 212.898438 50.429688 211.335938 49.851562 209.753906 49.316406 C 208.175781 48.78125 206.582031 48.28125 204.976562 47.828125 C 203.371094 47.371094 201.757812 46.953125 200.132812 46.578125 C 198.503906 46.203125 196.871094 45.871094 195.226562 45.578125 C 193.585938 45.285156 191.9375 45.035156 190.28125 44.824219 C 188.625 44.613281 186.964844 44.445312 185.300781 44.320312 C 183.640625 44.195312 181.972656 44.109375 180.304688 44.070312 C 178.636719 44.027344 176.96875 44.027344 175.300781 44.070312 C 173.632812 44.109375 171.96875 44.195312 170.304688 44.320312 C 168.640625 44.445312 166.980469 44.613281 165.324219 44.824219 C 163.667969 45.03125 162.019531 45.285156 160.378906 45.574219 C 158.734375 45.867188 157.101562 46.203125 155.472656 46.578125 C 153.847656 46.953125 152.234375 47.367188 150.628906 47.824219 C 149.023438 48.28125 147.429688 48.777344 145.851562 49.3125 C 144.269531 49.847656 142.707031 50.425781 141.152344 51.039062 C 139.601562 51.65625 138.070312 52.308594 136.550781 53.003906 C 135.03125 53.695312 133.535156 54.425781 132.050781 55.191406 C 130.570312 55.960938 129.109375 56.765625 127.667969 57.609375 C 126.230469 58.449219 124.8125 59.328125 123.414062 60.238281 C 122.019531 61.152344 120.644531 62.101562 119.296875 63.082031 C 117.949219 64.066406 116.625 65.082031 115.328125 66.128906 C 114.03125 67.179688 112.761719 68.257812 111.515625 69.371094 C 110.273438 70.484375 109.058594 71.628906 107.875 72.804688 C 106.691406 73.976562 105.535156 75.179688 104.410156 76.414062 C 103.285156 77.644531 102.191406 78.90625 101.132812 80.191406 C 100.070312 81.480469 99.042969 82.792969 98.046875 84.132812 C 97.050781 85.46875 96.089844 86.832031 95.164062 88.222656 C 94.238281 89.609375 93.347656 91.019531 92.492188 92.449219 C 91.636719 93.882812 90.820312 95.335938 90.035156 96.808594 C 89.253906 98.285156 88.511719 99.777344 87.804688 101.285156 C 87.097656 102.796875 86.429688 104.324219 85.800781 105.871094 C 85.167969 107.414062 84.578125 108.976562 84.027344 110.550781 C 83.476562 112.125 82.964844 113.710938 82.492188 115.3125 C 82.023438 116.910156 81.59375 118.523438 81.203125 120.144531 C 80.8125 121.765625 80.464844 123.398438 80.15625 125.035156 C 79.847656 126.675781 79.582031 128.324219 79.355469 129.976562 C 79.132812 131.628906 78.949219 133.285156 78.808594 134.949219 C 78.667969 136.609375 78.566406 138.273438 78.511719 139.941406 C 78.453125 141.609375 78.4375 143.277344 78.464844 144.945312 C 78.492188 146.613281 78.558594 148.277344 78.667969 149.941406 C 78.78125 151.609375 78.933594 153.269531 79.128906 154.925781 C 79.320312 156.582031 79.558594 158.234375 79.835938 159.878906 C 77.96875 160.425781 76.132812 161.054688 74.324219 161.765625 C 72.515625 162.476562 70.742188 163.265625 69.003906 164.136719 C 67.265625 165.007812 65.570312 165.953125 63.917969 166.972656 C 62.265625 167.992188 60.660156 169.085938 59.105469 170.25 C 57.546875 171.414062 56.046875 172.644531 54.601562 173.945312 C 53.15625 175.242188 51.769531 176.601562 50.445312 178.023438 C 49.121094 179.445312 47.863281 180.925781 46.671875 182.460938 C 45.480469 183.992188 44.359375 185.578125 43.308594 187.214844 C 42.257812 188.847656 41.28125 190.527344 40.378906 192.246094 C 39.480469 193.96875 38.65625 195.726562 37.914062 197.523438 C 37.171875 199.316406 36.507812 201.140625 35.929688 202.996094 C 35.347656 204.851562 34.851562 206.726562 34.4375 208.625 C 34.023438 210.523438 33.695312 212.4375 33.453125 214.363281 C 33.210938 216.292969 33.058594 218.226562 32.988281 220.167969 C 32.917969 222.109375 32.9375 224.050781 33.039062 225.992188 C 33.144531 227.929688 33.335938 229.863281 33.613281 231.785156 C 33.886719 233.710938 34.25 235.617188 34.695312 237.507812 C 35.144531 239.398438 35.675781 241.265625 36.289062 243.109375 C 36.902344 244.953125 37.597656 246.765625 38.375 248.546875 C 39.148438 250.328125 40.003906 252.070312 40.933594 253.773438 C 41.867188 255.480469 42.871094 257.140625 43.953125 258.757812 C 45.03125 260.371094 46.179688 261.933594 47.402344 263.449219 C 48.621094 264.960938 49.90625 266.414062 51.253906 267.8125 C 52.605469 269.210938 54.015625 270.546875 55.484375 271.820312 C 56.953125 273.089844 58.476562 274.296875 60.050781 275.429688 C 61.628906 276.566406 63.25 277.632812 64.921875 278.621094 C 66.59375 279.613281 68.308594 280.527344 70.0625 281.367188 C 71.8125 282.203125 73.601562 282.960938 75.421875 283.640625 C 77.242188 284.320312 79.089844 284.917969 80.964844 285.429688 C 82.839844 285.945312 84.734375 286.371094 86.644531 286.71875 C 88.558594 287.0625 90.480469 287.320312 92.417969 287.492188 C 94.355469 287.664062 96.292969 287.753906 98.238281 287.75 L 268.648438 287.75 C 269.855469 287.746094 271.0625 287.714844 272.269531 287.652344 C 273.476562 287.589844 274.679688 287.5 275.882812 287.378906 C 277.085938 287.261719 278.285156 287.113281 279.480469 286.9375 C 280.675781 286.761719 281.867188 286.558594 283.054688 286.328125 C 284.238281 286.097656 285.417969 285.835938 286.59375 285.546875 C 287.765625 285.261719 288.933594 284.945312 290.089844 284.601562 C 291.25 284.261719 292.398438 283.890625 293.539062 283.492188 C 294.683594 283.097656 295.8125 282.671875 296.933594 282.222656 C 298.054688 281.769531 299.164062 281.292969 300.265625 280.789062 C 301.363281 280.285156 302.449219 279.757812 303.523438 279.203125 C 304.59375 278.648438 305.65625 278.070312 306.703125 277.464844 C 307.746094 276.859375 308.777344 276.230469 309.792969 275.578125 C 310.8125 274.925781 311.8125 274.246094 312.796875 273.546875 C 313.78125 272.84375 314.746094 272.121094 315.699219 271.375 C 316.648438 270.628906 317.578125 269.859375 318.492188 269.070312 C 319.40625 268.277344 320.300781 267.46875 321.175781 266.632812 C 322.050781 265.800781 322.90625 264.949219 323.742188 264.074219 C 324.578125 263.203125 325.390625 262.308594 326.183594 261.398438 C 326.976562 260.484375 327.746094 259.554688 328.496094 258.609375 C 329.242188 257.660156 329.96875 256.695312 330.671875 255.710938 C 331.375 254.730469 332.054688 253.730469 332.710938 252.714844 C 333.367188 251.699219 333.996094 250.671875 334.605469 249.625 C 335.210938 248.582031 335.792969 247.523438 336.351562 246.453125 C 336.90625 245.378906 337.4375 244.292969 337.945312 243.199219 C 338.449219 242.101562 338.929688 240.992188 339.382812 239.871094 C 339.835938 238.753906 340.261719 237.621094 340.660156 236.480469 C 341.0625 235.34375 341.433594 234.191406 341.777344 233.035156 C 342.125 231.878906 342.441406 230.710938 342.730469 229.539062 C 343.023438 228.367188 343.285156 227.1875 343.519531 226.003906 C 343.753906 224.816406 343.960938 223.628906 344.136719 222.433594 C 344.316406 221.238281 344.464844 220.039062 344.585938 218.839844 C 344.707031 217.636719 344.800781 216.433594 344.867188 215.226562 C 344.929688 214.019531 344.964844 212.8125 344.972656 211.605469 C 344.980469 210.394531 344.957031 209.1875 344.910156 207.980469 C 344.859375 206.773438 344.78125 205.570312 344.675781 204.367188 C 344.566406 203.164062 344.433594 201.960938 344.269531 200.765625 C 344.105469 199.570312 343.914062 198.375 343.691406 197.1875 C 343.472656 196 343.222656 194.820312 342.949219 193.644531 C 342.671875 192.464844 342.367188 191.296875 342.035156 190.136719 C 341.707031 188.972656 341.347656 187.820312 340.960938 186.675781 C 340.574219 185.53125 340.164062 184.394531 339.722656 183.269531 C 339.28125 182.144531 338.816406 181.03125 338.324219 179.929688 C 337.832031 178.824219 337.3125 177.734375 336.769531 176.65625 C 336.226562 175.578125 335.65625 174.511719 335.0625 173.460938 C 334.46875 172.40625 333.847656 171.371094 333.207031 170.347656 C 332.5625 169.324219 331.894531 168.320312 331.203125 167.328125 C 330.511719 166.335938 329.796875 165.363281 329.0625 164.40625 C 328.324219 163.449219 327.566406 162.507812 326.78125 161.589844 C 326 160.667969 325.199219 159.765625 324.375 158.882812 C 323.550781 158 322.703125 157.136719 321.839844 156.292969 C 320.972656 155.449219 320.089844 154.625 319.1875 153.824219 C 318.28125 153.023438 317.359375 152.242188 316.417969 151.484375 C 315.476562 150.726562 314.519531 149.992188 313.542969 149.28125 C 312.566406 148.566406 311.574219 147.878906 310.566406 147.210938 C 309.558594 146.546875 308.535156 145.90625 307.496094 145.289062 C 306.457031 144.671875 305.402344 144.078125 304.335938 143.511719 C 303.269531 142.945312 302.191406 142.402344 301.097656 141.886719 C 300.007812 141.371094 298.902344 140.878906 297.785156 140.414062 C 296.671875 139.949219 295.542969 139.511719 294.410156 139.101562 C 293.273438 138.691406 292.125 138.308594 290.972656 137.949219 C 289.816406 137.59375 288.65625 137.265625 287.484375 136.964844 C 286.316406 136.660156 285.140625 136.386719 283.957031 136.140625 C 282.773438 135.894531 281.585938 135.675781 280.390625 135.488281 C 279.199219 135.296875 278 135.136719 276.800781 135.003906 Z M 268.648438 270.804688 L 98.257812 270.804688 C 96.75 270.800781 95.25 270.730469 93.746094 270.585938 C 92.246094 270.445312 90.757812 270.230469 89.277344 269.949219 C 87.796875 269.667969 86.332031 269.316406 84.882812 268.898438 C 83.4375 268.480469 82.011719 267.992188 80.609375 267.441406 C 79.207031 266.886719 77.832031 266.273438 76.488281 265.589844 C 75.144531 264.910156 73.835938 264.167969 72.558594 263.363281 C 71.285156 262.5625 70.050781 261.699219 68.855469 260.78125 C 67.660156 259.863281 66.511719 258.890625 65.410156 257.863281 C 64.304688 256.839844 63.25 255.761719 62.25 254.636719 C 61.246094 253.511719 60.296875 252.34375 59.402344 251.128906 C 58.511719 249.917969 57.675781 248.664062 56.898438 247.375 C 56.121094 246.082031 55.410156 244.757812 54.757812 243.398438 C 54.105469 242.039062 53.515625 240.65625 52.992188 239.242188 C 52.472656 237.828125 52.015625 236.394531 51.625 234.9375 C 51.238281 233.484375 50.917969 232.011719 50.667969 230.527344 C 50.417969 229.039062 50.234375 227.546875 50.125 226.042969 C 50.015625 224.539062 49.972656 223.035156 50.003906 221.53125 C 50.03125 220.023438 50.132812 218.523438 50.300781 217.023438 C 50.472656 215.527344 50.710938 214.042969 51.023438 212.566406 C 51.332031 211.09375 51.707031 209.636719 52.152344 208.195312 C 52.601562 206.757812 53.113281 205.339844 53.691406 203.949219 C 54.265625 202.558594 54.910156 201.195312 55.613281 199.863281 C 56.320312 198.535156 57.085938 197.238281 57.914062 195.976562 C 58.738281 194.71875 59.621094 193.5 60.5625 192.324219 C 61.503906 191.144531 62.496094 190.015625 63.542969 188.929688 C 64.589844 187.847656 65.6875 186.8125 66.828125 185.832031 C 67.972656 184.847656 69.160156 183.921875 70.386719 183.050781 C 71.617188 182.179688 72.886719 181.367188 74.191406 180.617188 C 75.496094 179.863281 76.835938 179.175781 78.207031 178.546875 C 79.574219 177.917969 80.972656 177.359375 82.394531 176.859375 C 83.820312 176.363281 85.261719 175.933594 86.722656 175.574219 C 88.1875 175.210938 89.664062 174.917969 91.15625 174.695312 C 91.746094 174.609375 92.320312 174.460938 92.878906 174.253906 C 93.4375 174.046875 93.96875 173.78125 94.472656 173.464844 C 94.976562 173.144531 95.441406 172.773438 95.867188 172.355469 C 96.292969 171.9375 96.671875 171.480469 97 170.980469 C 97.328125 170.484375 97.601562 169.957031 97.816406 169.398438 C 98.035156 168.84375 98.191406 168.273438 98.289062 167.683594 C 98.382812 167.09375 98.417969 166.503906 98.386719 165.90625 C 98.359375 165.3125 98.265625 164.722656 98.113281 164.148438 C 97.738281 162.738281 97.402344 161.316406 97.105469 159.890625 C 96.804688 158.460938 96.542969 157.027344 96.324219 155.582031 C 96.101562 154.140625 95.914062 152.695312 95.769531 151.242188 C 95.625 149.789062 95.519531 148.335938 95.449219 146.878906 C 95.382812 145.417969 95.351562 143.960938 95.359375 142.503906 C 95.371094 141.042969 95.417969 139.585938 95.503906 138.128906 C 95.589844 136.671875 95.71875 135.21875 95.882812 133.769531 C 96.046875 132.316406 96.246094 130.875 96.488281 129.433594 C 96.730469 127.996094 97.007812 126.5625 97.324219 125.136719 C 97.640625 123.714844 97.996094 122.300781 98.386719 120.894531 C 98.78125 119.488281 99.210938 118.09375 99.675781 116.710938 C 100.140625 115.328125 100.644531 113.957031 101.183594 112.601562 C 101.722656 111.246094 102.296875 109.90625 102.90625 108.578125 C 103.519531 107.253906 104.164062 105.945312 104.84375 104.652344 C 105.523438 103.363281 106.238281 102.089844 106.984375 100.835938 C 107.730469 99.582031 108.511719 98.351562 109.324219 97.140625 C 110.136719 95.925781 110.984375 94.738281 111.859375 93.570312 C 112.734375 92.402344 113.640625 91.261719 114.578125 90.140625 C 115.515625 89.023438 116.480469 87.929688 117.476562 86.859375 C 118.472656 85.792969 119.496094 84.753906 120.546875 83.738281 C 121.59375 82.726562 122.671875 81.742188 123.773438 80.785156 C 124.878906 79.828125 126.003906 78.902344 127.15625 78.007812 C 128.308594 77.109375 129.484375 76.246094 130.683594 75.414062 C 131.878906 74.578125 133.097656 73.777344 134.339844 73.007812 C 135.582031 72.238281 136.839844 71.503906 138.121094 70.800781 C 139.398438 70.097656 140.695312 69.433594 142.011719 68.800781 C 143.328125 68.164062 144.660156 67.566406 146.003906 67.003906 C 147.351562 66.441406 148.714844 65.917969 150.085938 65.425781 C 151.460938 64.9375 152.851562 64.484375 154.25 64.066406 C 155.648438 63.652344 157.058594 63.269531 158.476562 62.929688 C 159.894531 62.589844 161.320312 62.285156 162.757812 62.019531 C 164.191406 61.753906 165.632812 61.527344 167.082031 61.335938 C 168.527344 61.148438 169.980469 60.996094 171.433594 60.882812 C 172.890625 60.773438 174.347656 60.699219 175.808594 60.664062 C 177.265625 60.628906 178.726562 60.632812 180.183594 60.675781 C 181.644531 60.71875 183.101562 60.800781 184.554688 60.921875 C 186.011719 61.042969 187.460938 61.199219 188.90625 61.398438 C 190.351562 61.59375 191.792969 61.832031 193.226562 62.105469 C 194.660156 62.378906 196.085938 62.691406 197.503906 63.039062 C 198.921875 63.386719 200.328125 63.777344 201.722656 64.199219 C 203.121094 64.625 204.503906 65.085938 205.878906 65.582031 C 207.25 66.082031 208.605469 66.613281 209.949219 67.183594 C 211.292969 67.753906 212.621094 68.359375 213.933594 69 C 215.246094 69.640625 216.539062 70.316406 217.816406 71.023438 C 219.089844 71.734375 220.347656 72.476562 221.582031 73.253906 C 222.820312 74.027344 224.035156 74.835938 225.226562 75.675781 C 226.421875 76.519531 227.589844 77.390625 228.738281 78.292969 C 229.882812 79.195312 231.007812 80.125 232.105469 81.089844 C 233.199219 82.050781 234.273438 83.042969 235.316406 84.0625 C 236.363281 85.082031 237.378906 86.125 238.367188 87.199219 C 239.355469 88.273438 240.316406 89.371094 241.246094 90.496094 C 242.179688 91.621094 243.078125 92.769531 243.949219 93.941406 C 244.816406 95.113281 245.65625 96.304688 246.460938 97.523438 C 247.269531 98.738281 248.042969 99.976562 248.78125 101.234375 C 249.523438 102.492188 250.230469 103.769531 250.902344 105.0625 C 251.574219 106.359375 252.210938 107.671875 252.816406 109 C 253.417969 110.328125 253.984375 111.671875 254.515625 113.03125 C 255.046875 114.390625 255.542969 115.761719 256 117.148438 C 256.460938 118.535156 256.878906 119.929688 257.265625 121.339844 C 257.648438 122.746094 257.996094 124.164062 258.304688 125.589844 C 258.613281 127.015625 258.882812 128.449219 259.117188 129.890625 C 259.351562 131.328125 259.542969 132.777344 259.699219 134.226562 C 259.855469 135.675781 259.972656 137.132812 260.050781 138.589844 C 260.128906 140.046875 260.171875 141.503906 260.171875 142.964844 C 260.171875 143.519531 260.222656 144.070312 260.332031 144.617188 C 260.441406 145.164062 260.601562 145.695312 260.8125 146.207031 C 261.027344 146.722656 261.289062 147.210938 261.597656 147.675781 C 261.90625 148.136719 262.257812 148.566406 262.652344 148.957031 C 263.042969 149.351562 263.472656 149.703125 263.9375 150.011719 C 264.398438 150.320312 264.886719 150.582031 265.402344 150.796875 C 265.917969 151.007812 266.445312 151.167969 266.992188 151.277344 C 267.539062 151.382812 268.089844 151.4375 268.648438 151.4375 C 270.578125 151.472656 272.5 151.605469 274.417969 151.828125 C 276.335938 152.054688 278.238281 152.371094 280.125 152.777344 C 282.011719 153.1875 283.875 153.683594 285.710938 154.273438 C 287.550781 154.863281 289.355469 155.539062 291.128906 156.304688 C 292.902344 157.070312 294.632812 157.917969 296.320312 158.847656 C 298.011719 159.78125 299.652344 160.792969 301.246094 161.886719 C 302.835938 162.976562 304.371094 164.140625 305.851562 165.382812 C 307.332031 166.625 308.746094 167.933594 310.097656 169.308594 C 311.449219 170.6875 312.730469 172.128906 313.941406 173.628906 C 315.15625 175.132812 316.292969 176.691406 317.351562 178.300781 C 318.414062 179.914062 319.394531 181.574219 320.292969 183.28125 C 321.191406 184.988281 322.007812 186.734375 322.738281 188.523438 C 323.46875 190.308594 324.109375 192.125 324.664062 193.976562 C 325.21875 195.824219 325.679688 197.695312 326.050781 199.589844 C 326.425781 201.484375 326.703125 203.390625 326.890625 205.3125 C 327.078125 207.230469 327.171875 209.15625 327.171875 211.085938 C 327.171875 213.015625 327.078125 214.941406 326.890625 216.863281 C 326.703125 218.785156 326.425781 220.691406 326.050781 222.585938 C 325.679688 224.480469 325.21875 226.351562 324.664062 228.199219 C 324.109375 230.046875 323.46875 231.867188 322.738281 233.652344 C 322.007812 235.4375 321.191406 237.1875 320.292969 238.894531 C 319.394531 240.601562 318.414062 242.261719 317.351562 243.871094 C 316.292969 245.484375 315.15625 247.042969 313.941406 248.542969 C 312.730469 250.046875 311.449219 251.488281 310.097656 252.863281 C 308.746094 254.242188 307.332031 255.550781 305.851562 256.792969 C 304.371094 258.03125 302.835938 259.199219 301.246094 260.289062 C 299.652344 261.382812 298.011719 262.394531 296.320312 263.324219 C 294.632812 264.257812 292.902344 265.105469 291.128906 265.871094 C 289.355469 266.632812 287.550781 267.3125 285.710938 267.902344 C 283.875 268.488281 282.011719 268.988281 280.125 269.398438 C 278.238281 269.804688 276.335938 270.121094 274.417969 270.34375 C 272.5 270.570312 270.578125 270.699219 268.648438 270.738281 Z M 268.648438 270.804688 " clip-rule="evenodd"/></clipPath><linearGradient x1="15.674618" gradientTransform="matrix(11.152529, 0, 0, 11.149553, 10.689262, -12.673)" y1="4.803151" x2="16.13633" gradientUnits="userSpaceOnUse" y2="27.18546" id="2fad8cb356"><stop stop-opacity="1" stop-color="rgb(12.913513%, 90.707397%, 64.190674%)" offset="0"/><stop stop-opacity="1" stop-color="rgb(12.840271%, 90.512085%, 64.385986%)" offset="0.015625"/><stop stop-opacity="1" stop-color="rgb(12.696838%, 90.12146%, 64.776611%)" offset="0.0257777"/><stop stop-opacity="1" stop-color="rgb(12.625122%, 89.926147%, 64.971924%)" offset="0.03125"/><stop stop-opacity="1" stop-color="rgb(12.553406%, 89.730835%, 65.167236%)" offset="0.046875"/><stop stop-opacity="1" stop-color="rgb(12.408447%, 89.34021%, 65.557861%)" offset="0.0625"/><stop stop-opacity="1" stop-color="rgb(12.265015%, 88.951111%, 65.948486%)" offset="0.078125"/><stop stop-opacity="1" stop-color="rgb(12.121582%, 88.560486%, 66.337585%)" offset="0.09375"/><stop stop-opacity="1" stop-color="rgb(11.978149%, 88.169861%, 66.72821%)" offset="0.109375"/><stop stop-opacity="1" stop-color="rgb(11.833191%, 87.779236%, 67.118835%)" offset="0.125"/><stop stop-opacity="1" stop-color="rgb(11.689758%, 87.388611%, 67.50946%)" offset="0.140625"/><stop stop-opacity="1" stop-color="rgb(11.546326%, 86.997986%, 67.900085%)" offset="0.15625"/><stop stop-opacity="1" stop-color="rgb(11.402893%, 86.607361%, 68.29071%)" offset="0.171875"/><stop stop-opacity="1" stop-color="rgb(11.257935%, 86.216736%, 68.681335%)" offset="0.1875"/><stop stop-opacity="1" stop-color="rgb(11.114502%, 85.826111%, 69.07196%)" offset="0.203125"/><stop stop-opacity="1" stop-color="rgb(10.971069%, 85.437012%, 69.462585%)" offset="0.21875"/><stop stop-opacity="1" stop-color="rgb(10.826111%, 85.046387%, 69.851685%)" offset="0.234375"/><stop stop-opacity="1" stop-color="rgb(10.682678%, 84.655762%, 70.24231%)" offset="0.25"/><stop stop-opacity="1" stop-color="rgb(10.539246%, 84.265137%, 70.632935%)" offset="0.265625"/><stop stop-opacity="1" stop-color="rgb(10.395813%, 83.874512%, 71.02356%)" offset="0.28125"/><stop stop-opacity="1" stop-color="rgb(10.250854%, 83.483887%, 71.414185%)" offset="0.296875"/><stop stop-opacity="1" stop-color="rgb(10.107422%, 83.093262%, 71.80481%)" offset="0.3125"/><stop stop-opacity="1" stop-color="rgb(9.963989%, 82.702637%, 72.195435%)" offset="0.328125"/><stop stop-opacity="1" stop-color="rgb(9.820557%, 82.312012%, 72.58606%)" offset="0.34375"/><stop stop-opacity="1" stop-color="rgb(9.675598%, 81.922913%, 72.976685%)" offset="0.359375"/><stop stop-opacity="1" stop-color="rgb(9.532166%, 81.532288%, 73.365784%)" offset="0.375"/><stop stop-opacity="1" stop-color="rgb(9.388733%, 81.141663%, 73.756409%)" offset="0.390625"/><stop stop-opacity="1" stop-color="rgb(9.243774%, 80.751038%, 74.147034%)" offset="0.40625"/><stop stop-opacity="1" stop-color="rgb(9.100342%, 80.360413%, 74.537659%)" offset="0.421875"/><stop stop-opacity="1" stop-color="rgb(8.956909%, 79.969788%, 74.928284%)" offset="0.4375"/><stop stop-opacity="1" stop-color="rgb(8.813477%, 79.579163%, 75.318909%)" offset="0.453125"/><stop stop-opacity="1" stop-color="rgb(8.668518%, 79.188538%, 75.709534%)" offset="0.46875"/><stop stop-opacity="1" stop-color="rgb(8.525085%, 78.797913%, 76.100159%)" offset="0.484375"/><stop stop-opacity="1" stop-color="rgb(8.381653%, 78.408813%, 76.490784%)" offset="0.5"/><stop stop-opacity="1" stop-color="rgb(8.236694%, 78.018188%, 76.879883%)" offset="0.515625"/><stop stop-opacity="1" stop-color="rgb(8.093262%, 77.627563%, 77.270508%)" offset="0.53125"/><stop stop-opacity="1" stop-color="rgb(7.949829%, 77.236938%, 77.661133%)" offset="0.546875"/><stop stop-opacity="1" stop-color="rgb(7.806396%, 76.846313%, 78.051758%)" offset="0.5625"/><stop stop-opacity="1" stop-color="rgb(7.661438%, 76.455688%, 78.442383%)" offset="0.578125"/><stop stop-opacity="1" stop-color="rgb(7.518005%, 76.065063%, 78.833008%)" offset="0.59375"/><stop stop-opacity="1" stop-color="rgb(7.374573%, 75.674438%, 79.223633%)" offset="0.609375"/><stop stop-opacity="1" stop-color="rgb(7.23114%, 75.283813%, 79.614258%)" offset="0.625"/><stop stop-opacity="1" stop-color="rgb(7.086182%, 74.894714%, 80.004883%)" offset="0.640625"/><stop stop-opacity="1" stop-color="rgb(6.942749%, 74.504089%, 80.393982%)" offset="0.65625"/><stop stop-opacity="1" stop-color="rgb(6.799316%, 74.113464%, 80.784607%)" offset="0.671875"/><stop stop-opacity="1" stop-color="rgb(6.654358%, 73.722839%, 81.175232%)" offset="0.6875"/><stop stop-opacity="1" stop-color="rgb(6.510925%, 73.332214%, 81.565857%)" offset="0.703125"/><stop stop-opacity="1" stop-color="rgb(6.367493%, 72.941589%, 81.956482%)" offset="0.71875"/><stop stop-opacity="1" stop-color="rgb(6.22406%, 72.550964%, 82.347107%)" offset="0.734375"/><stop stop-opacity="1" stop-color="rgb(6.079102%, 72.160339%, 82.737732%)" offset="0.75"/><stop stop-opacity="1" stop-color="rgb(5.935669%, 71.769714%, 83.128357%)" offset="0.765625"/><stop stop-opacity="1" stop-color="rgb(5.792236%, 71.380615%, 83.518982%)" offset="0.78125"/><stop stop-opacity="1" stop-color="rgb(5.648804%, 70.98999%, 83.908081%)" offset="0.796875"/><stop stop-opacity="1" stop-color="rgb(5.503845%, 70.599365%, 84.298706%)" offset="0.8125"/><stop stop-opacity="1" stop-color="rgb(5.360413%, 70.20874%, 84.689331%)" offset="0.828125"/><stop stop-opacity="1" stop-color="rgb(5.21698%, 69.818115%, 85.079956%)" offset="0.84375"/><stop stop-opacity="1" stop-color="rgb(5.072021%, 69.42749%, 85.470581%)" offset="0.859375"/><stop stop-opacity="1" stop-color="rgb(4.928589%, 69.036865%, 85.861206%)" offset="0.875"/><stop stop-opacity="1" stop-color="rgb(4.785156%, 68.64624%, 86.251831%)" offset="0.890625"/><stop stop-opacity="1" stop-color="rgb(4.641724%, 68.255615%, 86.642456%)" offset="0.90625"/><stop stop-opacity="1" stop-color="rgb(4.496765%, 67.866516%, 87.033081%)" offset="0.921875"/><stop stop-opacity="1" stop-color="rgb(4.353333%, 67.475891%, 87.42218%)" offset="0.9375"/><stop stop-opacity="1" stop-color="rgb(4.2099%, 67.085266%, 87.812805%)" offset="0.953125"/><stop stop-opacity="1" stop-color="rgb(4.066467%, 66.694641%, 88.20343%)" offset="0.96875"/><stop stop-opacity="1" stop-color="rgb(3.921509%, 66.304016%, 88.594055%)" offset="0.974222"/><stop stop-opacity="1" stop-color="rgb(3.849792%, 66.108704%, 88.789368%)" offset="0.984375"/><stop stop-opacity="1" stop-color="rgb(3.778076%, 65.913391%, 88.98468%)" offset="1"/></linearGradient><clipPath id="8bab500ad1"><path d="M 109 76 L 190 76 L 190 142 L 109 142 Z M 109 76 " clip-rule="nonzero"/></clipPath><clipPath id="f93bc8676d"><path d="M 126.464844 135.015625 C 126.859375 133.523438 127.316406 132.050781 127.835938 130.597656 C 128.351562 129.148438 128.929688 127.71875 129.5625 126.3125 C 130.199219 124.90625 130.890625 123.527344 131.636719 122.179688 C 132.386719 120.832031 133.1875 119.515625 134.042969 118.230469 C 134.898438 116.949219 135.804688 115.703125 136.761719 114.492188 C 137.71875 113.285156 138.722656 112.117188 139.777344 110.988281 C 140.832031 109.863281 141.929688 108.78125 143.070312 107.742188 C 144.210938 106.707031 145.394531 105.71875 146.617188 104.777344 C 147.839844 103.835938 149.097656 102.949219 150.394531 102.113281 C 151.691406 101.273438 153.019531 100.492188 154.378906 99.765625 C 155.738281 99.035156 157.125 98.363281 158.539062 97.75 C 159.953125 97.136719 161.390625 96.578125 162.851562 96.082031 C 164.3125 95.585938 165.789062 95.148438 167.285156 94.773438 C 168.78125 94.398438 170.292969 94.082031 171.8125 93.832031 C 173.335938 93.578125 174.863281 93.386719 176.402344 93.261719 C 177.9375 93.132812 179.480469 93.070312 181.023438 93.070312 C 181.589844 93.089844 182.15625 93.054688 182.71875 92.960938 C 183.28125 92.867188 183.828125 92.71875 184.359375 92.515625 C 184.890625 92.3125 185.398438 92.058594 185.878906 91.75 C 186.359375 91.445312 186.804688 91.097656 187.214844 90.699219 C 187.621094 90.304688 187.988281 89.875 188.3125 89.40625 C 188.636719 88.933594 188.90625 88.4375 189.128906 87.914062 C 189.351562 87.390625 189.519531 86.851562 189.632812 86.292969 C 189.75 85.734375 189.804688 85.171875 189.804688 84.601562 C 189.804688 84.03125 189.75 83.46875 189.632812 82.910156 C 189.519531 82.351562 189.351562 81.8125 189.128906 81.289062 C 188.90625 80.765625 188.636719 80.265625 188.3125 79.796875 C 187.988281 79.328125 187.621094 78.898438 187.214844 78.5 C 186.804688 78.105469 186.359375 77.757812 185.878906 77.449219 C 185.398438 77.144531 184.890625 76.890625 184.359375 76.6875 C 183.828125 76.484375 183.28125 76.335938 182.71875 76.242188 C 182.15625 76.148438 181.589844 76.113281 181.023438 76.132812 C 179.015625 76.132812 177.015625 76.21875 175.015625 76.382812 C 173.015625 76.546875 171.027344 76.792969 169.046875 77.121094 C 167.070312 77.449219 165.109375 77.859375 163.164062 78.347656 C 161.21875 78.835938 159.296875 79.402344 157.398438 80.050781 C 155.5 80.695312 153.628906 81.417969 151.789062 82.21875 C 149.949219 83.015625 148.144531 83.890625 146.378906 84.835938 C 144.609375 85.78125 142.882812 86.800781 141.199219 87.886719 C 139.515625 88.976562 137.878906 90.132812 136.285156 91.355469 C 134.695312 92.578125 133.160156 93.863281 131.675781 95.210938 C 130.191406 96.558594 128.761719 97.964844 127.394531 99.429688 C 126.023438 100.894531 124.71875 102.414062 123.472656 103.984375 C 122.226562 105.558594 121.046875 107.175781 119.9375 108.847656 C 118.824219 110.515625 117.78125 112.226562 116.808594 113.980469 C 115.835938 115.734375 114.9375 117.523438 114.113281 119.351562 C 113.289062 121.179688 112.539062 123.039062 111.863281 124.925781 C 111.191406 126.816406 110.597656 128.726562 110.082031 130.664062 C 109.929688 131.207031 109.835938 131.753906 109.792969 132.316406 C 109.75 132.875 109.765625 133.429688 109.835938 133.988281 C 109.90625 134.542969 110.027344 135.089844 110.207031 135.621094 C 110.382812 136.152344 110.609375 136.660156 110.890625 137.148438 C 111.167969 137.636719 111.492188 138.089844 111.859375 138.511719 C 112.230469 138.933594 112.636719 139.316406 113.082031 139.65625 C 113.527344 140 114 140.292969 114.503906 140.542969 C 115.007812 140.789062 115.527344 140.984375 116.070312 141.128906 C 116.613281 141.273438 117.164062 141.363281 117.722656 141.398438 C 118.285156 141.429688 118.839844 141.410156 119.398438 141.335938 C 119.953125 141.257812 120.496094 141.128906 121.023438 140.945312 C 121.554688 140.761719 122.0625 140.527344 122.542969 140.242188 C 123.027344 139.957031 123.480469 139.628906 123.898438 139.253906 C 124.316406 138.878906 124.691406 138.46875 125.027344 138.019531 C 125.363281 137.570312 125.652344 137.09375 125.894531 136.589844 C 126.136719 136.082031 126.328125 135.558594 126.464844 135.015625 Z M 126.464844 135.015625 " clip-rule="evenodd"/></clipPath><linearGradient x1="12.397884" gradientTransform="matrix(11.152529, 0, 0, 11.149553, 10.689262, -12.673)" y1="7.890632" x2="12.521736" gradientUnits="userSpaceOnUse" y2="13.89455" id="f0499f11c0"><stop stop-opacity="1" stop-color="rgb(11.671448%, 87.338257%, 67.56134%)" offset="0"/><stop stop-opacity="1" stop-color="rgb(11.631775%, 87.232971%, 67.6651%)" offset="0.0246521"/><stop stop-opacity="1" stop-color="rgb(11.593628%, 87.127686%, 67.770386%)" offset="0.03125"/><stop stop-opacity="1" stop-color="rgb(11.555481%, 87.0224%, 67.874146%)" offset="0.0625"/><stop stop-opacity="1" stop-color="rgb(11.477661%, 86.813354%, 68.084717%)" offset="0.09375"/><stop stop-opacity="1" stop-color="rgb(11.401367%, 86.604309%, 68.293762%)" offset="0.125"/><stop stop-opacity="1" stop-color="rgb(11.323547%, 86.393738%, 68.502808%)" offset="0.15625"/><stop stop-opacity="1" stop-color="rgb(11.245728%, 86.184692%, 68.711853%)" offset="0.1875"/><stop stop-opacity="1" stop-color="rgb(11.169434%, 85.975647%, 68.922424%)" offset="0.21875"/><stop stop-opacity="1" stop-color="rgb(11.091614%, 85.766602%, 69.13147%)" offset="0.25"/><stop stop-opacity="1" stop-color="rgb(11.01532%, 85.55603%, 69.340515%)" offset="0.28125"/><stop stop-opacity="1" stop-color="rgb(10.9375%, 85.346985%, 69.551086%)" offset="0.3125"/><stop stop-opacity="1" stop-color="rgb(10.861206%, 85.137939%, 69.760132%)" offset="0.34375"/><stop stop-opacity="1" stop-color="rgb(10.783386%, 84.927368%, 69.969177%)" offset="0.375"/><stop stop-opacity="1" stop-color="rgb(10.705566%, 84.718323%, 70.178223%)" offset="0.40625"/><stop stop-opacity="1" stop-color="rgb(10.629272%, 84.509277%, 70.388794%)" offset="0.4375"/><stop stop-opacity="1" stop-color="rgb(10.551453%, 84.300232%, 70.597839%)" offset="0.46875"/><stop stop-opacity="1" stop-color="rgb(10.475159%, 84.089661%, 70.806885%)" offset="0.5"/><stop stop-opacity="1" stop-color="rgb(10.397339%, 83.880615%, 71.01593%)" offset="0.53125"/><stop stop-opacity="1" stop-color="rgb(10.319519%, 83.67157%, 71.226501%)" offset="0.5625"/><stop stop-opacity="1" stop-color="rgb(10.243225%, 83.460999%, 71.435547%)" offset="0.59375"/><stop stop-opacity="1" stop-color="rgb(10.165405%, 83.251953%, 71.644592%)" offset="0.625"/><stop stop-opacity="1" stop-color="rgb(10.089111%, 83.042908%, 71.855164%)" offset="0.65625"/><stop stop-opacity="1" stop-color="rgb(10.011292%, 82.833862%, 72.064209%)" offset="0.6875"/><stop stop-opacity="1" stop-color="rgb(9.934998%, 82.623291%, 72.273254%)" offset="0.71875"/><stop stop-opacity="1" stop-color="rgb(9.857178%, 82.414246%, 72.4823%)" offset="0.75"/><stop stop-opacity="1" stop-color="rgb(9.779358%, 82.2052%, 72.692871%)" offset="0.78125"/><stop stop-opacity="1" stop-color="rgb(9.703064%, 81.996155%, 72.901917%)" offset="0.8125"/><stop stop-opacity="1" stop-color="rgb(9.625244%, 81.785583%, 73.110962%)" offset="0.84375"/><stop stop-opacity="1" stop-color="rgb(9.54895%, 81.576538%, 73.321533%)" offset="0.875"/><stop stop-opacity="1" stop-color="rgb(9.47113%, 81.367493%, 73.530579%)" offset="0.90625"/><stop stop-opacity="1" stop-color="rgb(9.394836%, 81.156921%, 73.739624%)" offset="0.9375"/><stop stop-opacity="1" stop-color="rgb(9.317017%, 80.947876%, 73.948669%)" offset="0.96875"/><stop stop-opacity="1" stop-color="rgb(9.239197%, 80.738831%, 74.159241%)" offset="0.975348"/><stop stop-opacity="1" stop-color="rgb(9.20105%, 80.635071%, 74.264526%)" offset="1"/></linearGradient><clipPath id="da3830f8e1"><path d="M 122 146 L 208 146 L 208 232 L 122 232 Z M 122 146 " clip-rule="nonzero"/></clipPath><clipPath id="c17e0071fc"><path d="M 165.308594 146.464844 C 163.914062 146.464844 162.527344 146.53125 161.140625 146.667969 C 159.753906 146.804688 158.378906 147.007812 157.015625 147.28125 C 155.648438 147.554688 154.300781 147.890625 152.96875 148.292969 C 151.632812 148.699219 150.324219 149.167969 149.039062 149.699219 C 147.753906 150.234375 146.496094 150.828125 145.265625 151.484375 C 144.039062 152.140625 142.847656 152.855469 141.6875 153.628906 C 140.53125 154.402344 139.414062 155.230469 138.335938 156.113281 C 137.261719 156.996094 136.230469 157.929688 135.246094 158.914062 C 134.261719 159.898438 133.328125 160.925781 132.445312 162.003906 C 131.5625 163.078125 130.734375 164.195312 129.960938 165.355469 C 129.1875 166.511719 128.472656 167.703125 127.8125 168.929688 C 127.15625 170.160156 126.5625 171.414062 126.03125 172.703125 C 125.496094 173.988281 125.03125 175.296875 124.625 176.628906 C 124.222656 177.960938 123.882812 179.308594 123.613281 180.675781 C 123.339844 182.039062 123.136719 183.414062 123 184.800781 C 122.863281 186.1875 122.792969 187.574219 122.792969 188.964844 C 122.792969 190.359375 122.863281 191.746094 123 193.132812 C 123.136719 194.519531 123.339844 195.894531 123.613281 197.257812 C 123.882812 198.625 124.222656 199.972656 124.625 201.304688 C 125.03125 202.636719 125.496094 203.945312 126.03125 205.230469 C 126.5625 206.515625 127.15625 207.773438 127.8125 209.003906 C 128.472656 210.230469 129.1875 211.421875 129.960938 212.578125 C 130.734375 213.738281 131.5625 214.855469 132.445312 215.929688 C 133.328125 217.003906 134.261719 218.035156 135.246094 219.019531 C 136.230469 220.003906 137.261719 220.9375 138.335938 221.820312 C 139.414062 222.703125 140.53125 223.53125 141.6875 224.304688 C 142.847656 225.078125 144.039062 225.792969 145.265625 226.449219 C 146.496094 227.105469 147.753906 227.699219 149.039062 228.234375 C 150.324219 228.765625 151.632812 229.234375 152.96875 229.636719 C 154.300781 230.042969 155.648438 230.378906 157.015625 230.652344 C 158.378906 230.921875 159.753906 231.128906 161.140625 231.265625 C 162.527344 231.402344 163.914062 231.46875 165.308594 231.46875 C 166.699219 231.46875 168.089844 231.402344 169.476562 231.265625 C 170.859375 231.128906 172.234375 230.921875 173.601562 230.652344 C 174.96875 230.378906 176.316406 230.042969 177.648438 229.636719 C 178.980469 229.234375 180.289062 228.765625 181.578125 228.234375 C 182.863281 227.699219 184.121094 227.105469 185.347656 226.449219 C 186.578125 225.792969 187.769531 225.078125 188.925781 224.304688 C 190.085938 223.53125 191.203125 222.703125 192.277344 221.820312 C 193.355469 220.9375 194.386719 220.003906 195.371094 219.019531 C 196.355469 218.035156 197.289062 217.003906 198.171875 215.929688 C 199.054688 214.855469 199.882812 213.738281 200.65625 212.578125 C 201.429688 211.421875 202.144531 210.230469 202.800781 209.003906 C 203.457031 207.773438 204.050781 206.515625 204.585938 205.230469 C 205.117188 203.945312 205.585938 202.636719 205.992188 201.304688 C 206.394531 199.972656 206.734375 198.625 207.003906 197.257812 C 207.277344 195.894531 207.480469 194.519531 207.617188 193.132812 C 207.753906 191.746094 207.820312 190.359375 207.820312 188.964844 C 207.820312 187.574219 207.75 186.1875 207.613281 184.800781 C 207.476562 183.417969 207.273438 182.042969 207 180.675781 C 206.730469 179.3125 206.390625 177.964844 205.984375 176.632812 C 205.582031 175.300781 205.113281 173.992188 204.578125 172.707031 C 204.046875 171.417969 203.453125 170.164062 202.792969 168.9375 C 202.136719 167.707031 201.421875 166.515625 200.648438 165.359375 C 199.875 164.203125 199.046875 163.085938 198.164062 162.007812 C 197.28125 160.933594 196.347656 159.902344 195.363281 158.917969 C 194.378906 157.933594 193.347656 157.003906 192.273438 156.117188 C 191.195312 155.234375 190.078125 154.40625 188.921875 153.632812 C 187.765625 152.859375 186.570312 152.144531 185.34375 151.488281 C 184.117188 150.832031 182.859375 150.238281 181.574219 149.707031 C 180.289062 149.171875 178.980469 148.703125 177.644531 148.300781 C 176.3125 147.894531 174.964844 147.558594 173.601562 147.285156 C 172.234375 147.011719 170.859375 146.808594 169.472656 146.671875 C 168.089844 146.535156 166.699219 146.464844 165.308594 146.464844 Z M 165.308594 214.53125 C 164.46875 214.53125 163.636719 214.492188 162.800781 214.410156 C 161.96875 214.328125 161.140625 214.203125 160.320312 214.042969 C 159.496094 213.878906 158.6875 213.675781 157.882812 213.433594 C 157.082031 213.1875 156.296875 212.90625 155.523438 212.585938 C 154.746094 212.265625 153.992188 211.910156 153.253906 211.515625 C 152.515625 211.117188 151.796875 210.6875 151.101562 210.222656 C 150.402344 209.757812 149.730469 209.261719 149.085938 208.730469 C 148.4375 208.199219 147.816406 207.636719 147.226562 207.042969 C 146.632812 206.453125 146.070312 205.832031 145.539062 205.183594 C 145.007812 204.539062 144.511719 203.867188 144.046875 203.171875 C 143.578125 202.472656 143.148438 201.757812 142.753906 201.019531 C 142.359375 200.28125 142.003906 199.523438 141.683594 198.75 C 141.359375 197.976562 141.078125 197.1875 140.835938 196.386719 C 140.59375 195.585938 140.390625 194.777344 140.226562 193.953125 C 140.0625 193.132812 139.941406 192.304688 139.859375 191.472656 C 139.777344 190.640625 139.734375 189.804688 139.734375 188.964844 C 139.734375 188.128906 139.777344 187.292969 139.859375 186.460938 C 139.941406 185.628906 140.0625 184.800781 140.226562 183.980469 C 140.390625 183.15625 140.59375 182.347656 140.835938 181.546875 C 141.078125 180.742188 141.359375 179.957031 141.683594 179.183594 C 142.003906 178.410156 142.359375 177.652344 142.753906 176.914062 C 143.148438 176.175781 143.578125 175.460938 144.046875 174.761719 C 144.511719 174.066406 145.007812 173.394531 145.539062 172.746094 C 146.070312 172.101562 146.632812 171.480469 147.226562 170.890625 C 147.816406 170.296875 148.4375 169.734375 149.085938 169.203125 C 149.730469 168.671875 150.402344 168.175781 151.101562 167.710938 C 151.796875 167.246094 152.515625 166.8125 153.253906 166.417969 C 153.992188 166.023438 154.746094 165.667969 155.523438 165.347656 C 156.296875 165.027344 157.082031 164.746094 157.882812 164.5 C 158.6875 164.257812 159.496094 164.054688 160.320312 163.890625 C 161.140625 163.730469 161.96875 163.605469 162.800781 163.523438 C 163.636719 163.441406 164.46875 163.402344 165.308594 163.402344 C 166.144531 163.402344 166.980469 163.441406 167.816406 163.523438 C 168.648438 163.605469 169.476562 163.730469 170.296875 163.890625 C 171.117188 164.054688 171.929688 164.257812 172.730469 164.5 C 173.53125 164.746094 174.320312 165.027344 175.09375 165.347656 C 175.867188 165.667969 176.625 166.023438 177.363281 166.417969 C 178.101562 166.8125 178.820312 167.246094 179.515625 167.710938 C 180.210938 168.175781 180.882812 168.671875 181.53125 169.203125 C 182.179688 169.734375 182.796875 170.296875 183.390625 170.890625 C 183.984375 171.480469 184.542969 172.101562 185.074219 172.746094 C 185.605469 173.394531 186.105469 174.066406 186.570312 174.761719 C 187.035156 175.460938 187.464844 176.175781 187.859375 176.914062 C 188.257812 177.652344 188.613281 178.410156 188.933594 179.183594 C 189.253906 179.957031 189.535156 180.742188 189.78125 181.546875 C 190.023438 182.347656 190.226562 183.15625 190.390625 183.980469 C 190.550781 184.800781 190.675781 185.628906 190.757812 186.460938 C 190.839844 187.292969 190.878906 188.128906 190.878906 188.964844 C 190.878906 189.804688 190.839844 190.640625 190.757812 191.472656 C 190.675781 192.304688 190.550781 193.132812 190.386719 193.953125 C 190.222656 194.773438 190.019531 195.585938 189.777344 196.386719 C 189.535156 197.1875 189.25 197.976562 188.929688 198.75 C 188.609375 199.523438 188.253906 200.277344 187.859375 201.015625 C 187.464844 201.753906 187.03125 202.472656 186.566406 203.167969 C 186.101562 203.863281 185.605469 204.535156 185.074219 205.183594 C 184.542969 205.828125 183.980469 206.449219 183.386719 207.042969 C 182.796875 207.632812 182.175781 208.195312 181.527344 208.726562 C 180.878906 209.257812 180.210938 209.753906 179.511719 210.21875 C 178.816406 210.6875 178.097656 211.117188 177.359375 211.511719 C 176.621094 211.90625 175.867188 212.261719 175.09375 212.582031 C 174.320312 212.902344 173.53125 213.1875 172.730469 213.429688 C 171.929688 213.671875 171.117188 213.875 170.296875 214.039062 C 169.476562 214.203125 168.648438 214.324219 167.8125 214.410156 C 166.980469 214.492188 166.144531 214.53125 165.308594 214.53125 Z M 165.308594 214.53125 " clip-rule="evenodd"/></clipPath><linearGradient x1="13.783491" gradientTransform="matrix(11.152529, 0, 0, 11.149553, 10.689262, -12.673)" y1="14.196026" x2="13.943938" gradientUnits="userSpaceOnUse" y2="21.973986" id="4a9d8c6bee"><stop stop-opacity="1" stop-color="rgb(9.066772%, 80.26886%, 74.629211%)" offset="0"/><stop stop-opacity="1" stop-color="rgb(9.016418%, 80.133057%, 74.765015%)" offset="0.0202115"/><stop stop-opacity="1" stop-color="rgb(8.96759%, 79.997253%, 74.900818%)" offset="0.03125"/><stop stop-opacity="1" stop-color="rgb(8.917236%, 79.86145%, 75.036621%)" offset="0.0625"/><stop stop-opacity="1" stop-color="rgb(8.816528%, 79.589844%, 75.308228%)" offset="0.09375"/><stop stop-opacity="1" stop-color="rgb(8.717346%, 79.318237%, 75.579834%)" offset="0.125"/><stop stop-opacity="1" stop-color="rgb(8.616638%, 79.048157%, 75.85144%)" offset="0.15625"/><stop stop-opacity="1" stop-color="rgb(8.517456%, 78.77655%, 76.121521%)" offset="0.1875"/><stop stop-opacity="1" stop-color="rgb(8.416748%, 78.504944%, 76.393127%)" offset="0.21875"/><stop stop-opacity="1" stop-color="rgb(8.31604%, 78.233337%, 76.664734%)" offset="0.25"/><stop stop-opacity="1" stop-color="rgb(8.216858%, 77.961731%, 76.93634%)" offset="0.28125"/><stop stop-opacity="1" stop-color="rgb(8.11615%, 77.690125%, 77.207947%)" offset="0.3125"/><stop stop-opacity="1" stop-color="rgb(8.016968%, 77.418518%, 77.479553%)" offset="0.34375"/><stop stop-opacity="1" stop-color="rgb(7.91626%, 77.148438%, 77.749634%)" offset="0.375"/><stop stop-opacity="1" stop-color="rgb(7.817078%, 76.876831%, 78.02124%)" offset="0.40625"/><stop stop-opacity="1" stop-color="rgb(7.71637%, 76.605225%, 78.292847%)" offset="0.4375"/><stop stop-opacity="1" stop-color="rgb(7.617188%, 76.333618%, 78.564453%)" offset="0.46875"/><stop stop-opacity="1" stop-color="rgb(7.516479%, 76.062012%, 78.83606%)" offset="0.5"/><stop stop-opacity="1" stop-color="rgb(7.417297%, 75.790405%, 79.107666%)" offset="0.53125"/><stop stop-opacity="1" stop-color="rgb(7.316589%, 75.520325%, 79.379272%)" offset="0.5625"/><stop stop-opacity="1" stop-color="rgb(7.217407%, 75.248718%, 79.649353%)" offset="0.59375"/><stop stop-opacity="1" stop-color="rgb(7.116699%, 74.977112%, 79.920959%)" offset="0.625"/><stop stop-opacity="1" stop-color="rgb(7.017517%, 74.705505%, 80.192566%)" offset="0.65625"/><stop stop-opacity="1" stop-color="rgb(6.916809%, 74.433899%, 80.464172%)" offset="0.6875"/><stop stop-opacity="1" stop-color="rgb(6.817627%, 74.162292%, 80.735779%)" offset="0.71875"/><stop stop-opacity="1" stop-color="rgb(6.716919%, 73.890686%, 81.007385%)" offset="0.75"/><stop stop-opacity="1" stop-color="rgb(6.617737%, 73.620605%, 81.277466%)" offset="0.78125"/><stop stop-opacity="1" stop-color="rgb(6.517029%, 73.348999%, 81.549072%)" offset="0.8125"/><stop stop-opacity="1" stop-color="rgb(6.417847%, 73.077393%, 81.820679%)" offset="0.84375"/><stop stop-opacity="1" stop-color="rgb(6.317139%, 72.805786%, 82.092285%)" offset="0.875"/><stop stop-opacity="1" stop-color="rgb(6.217957%, 72.53418%, 82.363892%)" offset="0.90625"/><stop stop-opacity="1" stop-color="rgb(6.117249%, 72.262573%, 82.635498%)" offset="0.9375"/><stop stop-opacity="1" stop-color="rgb(6.016541%, 71.992493%, 82.907104%)" offset="0.96875"/><stop stop-opacity="1" stop-color="rgb(5.917358%, 71.720886%, 83.177185%)" offset="0.979788"/><stop stop-opacity="1" stop-color="rgb(5.867004%, 71.585083%, 83.312988%)" offset="1"/></linearGradient><clipPath id="a6dc17fc1a"><path d="M 204 188 L 253 188 L 253 251 L 204 251 Z M 204 188 " clip-rule="nonzero"/></clipPath><clipPath id="0ec8c4eb70"><path d="M 244.480469 233.03125 L 234.855469 233.03125 C 237.578125 230.710938 239.964844 228.75 241.925781 226.917969 C 244.113281 225.117188 245.960938 223.015625 247.472656 220.613281 C 248.980469 218.210938 250.070312 215.636719 250.746094 212.882812 C 250.886719 212.152344 250.984375 211.417969 251.042969 210.679688 C 251.097656 209.941406 251.117188 209.199219 251.089844 208.457031 C 251.066406 207.714844 251.003906 206.980469 250.898438 206.246094 C 250.792969 205.511719 250.648438 204.785156 250.460938 204.066406 C 250.277344 203.347656 250.050781 202.640625 249.789062 201.945312 C 249.527344 201.253906 249.226562 200.578125 248.886719 199.914062 C 248.550781 199.253906 248.175781 198.613281 247.769531 197.996094 C 247.359375 197.375 246.917969 196.78125 246.445312 196.210938 C 245.972656 195.636719 245.46875 195.09375 244.933594 194.578125 C 244.402344 194.0625 243.839844 193.578125 243.253906 193.125 C 242.667969 192.671875 242.058594 192.25 241.421875 191.863281 C 240.789062 191.476562 240.136719 191.125 239.464844 190.8125 C 238.792969 190.496094 238.105469 190.21875 237.40625 189.980469 C 236.703125 189.742188 235.988281 189.539062 235.265625 189.378906 C 234.539062 189.21875 233.808594 189.097656 233.070312 189.019531 C 232.332031 188.9375 231.59375 188.898438 230.851562 188.898438 C 230.121094 188.761719 229.386719 188.660156 228.648438 188.597656 C 227.90625 188.53125 227.164062 188.507812 226.421875 188.523438 C 225.679688 188.539062 224.941406 188.589844 224.203125 188.683594 C 223.464844 188.773438 222.734375 188.902344 222.011719 189.070312 C 221.289062 189.238281 220.578125 189.445312 219.875 189.6875 C 219.171875 189.929688 218.484375 190.207031 217.8125 190.523438 C 217.140625 190.835938 216.484375 191.183594 215.847656 191.566406 C 215.210938 191.949219 214.597656 192.363281 214.003906 192.8125 C 213.410156 193.257812 212.839844 193.734375 212.296875 194.242188 C 211.753906 194.746094 211.238281 195.28125 210.75 195.839844 C 210.261719 196.398438 209.804688 196.984375 209.378906 197.589844 C 208.953125 198.199219 208.558594 198.828125 208.195312 199.476562 C 207.835938 200.125 207.507812 200.789062 207.21875 201.472656 C 206.925781 202.15625 206.671875 202.851562 206.453125 203.5625 C 206.230469 204.269531 206.050781 204.992188 205.90625 205.71875 C 205.761719 206.449219 205.65625 207.179688 205.589844 207.921875 C 205.558594 208.472656 205.578125 209.023438 205.652344 209.570312 C 205.726562 210.117188 205.851562 210.652344 206.03125 211.175781 C 206.207031 211.699219 206.433594 212.199219 206.710938 212.679688 C 206.988281 213.15625 207.308594 213.601562 207.671875 214.019531 C 208.035156 214.433594 208.4375 214.8125 208.875 215.148438 C 209.3125 215.488281 209.78125 215.777344 210.273438 216.023438 C 210.769531 216.269531 211.28125 216.464844 211.816406 216.613281 C 212.347656 216.757812 212.890625 216.851562 213.441406 216.890625 C 213.996094 216.929688 214.542969 216.914062 215.09375 216.847656 C 215.640625 216.78125 216.179688 216.660156 216.703125 216.488281 C 217.226562 216.3125 217.730469 216.089844 218.214844 215.820312 C 218.695312 215.550781 219.144531 215.234375 219.566406 214.875 C 219.984375 214.515625 220.367188 214.117188 220.707031 213.683594 C 221.050781 213.25 221.347656 212.785156 221.597656 212.292969 C 221.851562 211.800781 222.050781 211.289062 222.203125 210.757812 C 222.355469 210.226562 222.453125 209.6875 222.5 209.136719 C 222.722656 205.878906 226.300781 205.46875 229.113281 205.792969 C 231.597656 206.046875 234.742188 206.75 234.175781 209.492188 C 233.605469 212.234375 231.039062 214.085938 227.816406 216.851562 C 220.585938 222.746094 213.71875 229.039062 207.21875 235.726562 C 206.648438 236.328125 206.175781 237 205.804688 237.738281 C 205.429688 238.480469 205.167969 239.257812 205.023438 240.074219 C 204.878906 240.886719 204.855469 241.707031 204.949219 242.53125 C 205.042969 243.355469 205.253906 244.148438 205.582031 244.90625 C 205.910156 245.667969 206.339844 246.367188 206.875 247.003906 C 207.40625 247.636719 208.019531 248.183594 208.710938 248.636719 C 209.402344 249.09375 210.148438 249.441406 210.941406 249.675781 C 211.734375 249.914062 212.546875 250.035156 213.375 250.03125 L 244.457031 250.03125 C 245 250.011719 245.539062 249.941406 246.066406 249.820312 C 246.597656 249.695312 247.109375 249.523438 247.605469 249.300781 C 248.101562 249.082031 248.574219 248.8125 249.019531 248.5 C 249.460938 248.191406 249.875 247.839844 250.25 247.445312 C 250.628906 247.054688 250.964844 246.632812 251.261719 246.175781 C 251.558594 245.71875 251.804688 245.242188 252.011719 244.734375 C 252.214844 244.230469 252.367188 243.714844 252.472656 243.179688 C 252.574219 242.648438 252.625 242.109375 252.625 241.566406 C 252.625 241.019531 252.574219 240.484375 252.472656 239.949219 C 252.367188 239.414062 252.214844 238.898438 252.011719 238.394531 C 251.804688 237.890625 251.558594 237.410156 251.261719 236.953125 C 250.964844 236.496094 250.628906 236.074219 250.25 235.683594 C 249.875 235.292969 249.460938 234.941406 249.019531 234.628906 C 248.574219 234.316406 248.101562 234.046875 247.605469 233.828125 C 247.109375 233.605469 246.597656 233.433594 246.066406 233.308594 C 245.539062 233.1875 245 233.117188 244.457031 233.097656 Z M 244.480469 233.03125 " clip-rule="evenodd"/></clipPath><linearGradient x1="19.471373" gradientTransform="matrix(11.152529, 0, 0, 11.149553, 10.689262, -12.673)" y1="18.001394" x2="19.586981" gradientUnits="userSpaceOnUse" y2="23.605511" id="aeaf1707d6"><stop stop-opacity="1" stop-color="rgb(7.453918%, 75.891113%, 79.006958%)" offset="0"/><stop stop-opacity="1" stop-color="rgb(7.417297%, 75.793457%, 79.104614%)" offset="0.0157612"/><stop stop-opacity="1" stop-color="rgb(7.382202%, 75.695801%, 79.202271%)" offset="0.03125"/><stop stop-opacity="1" stop-color="rgb(7.345581%, 75.598145%, 79.299927%)" offset="0.0625"/><stop stop-opacity="1" stop-color="rgb(7.273865%, 75.402832%, 79.496765%)" offset="0.09375"/><stop stop-opacity="1" stop-color="rgb(7.202148%, 75.205994%, 79.692078%)" offset="0.125"/><stop stop-opacity="1" stop-color="rgb(7.093811%, 74.913025%, 79.985046%)" offset="0.1875"/><stop stop-opacity="1" stop-color="rgb(6.948853%, 74.5224%, 80.375671%)" offset="0.25"/><stop stop-opacity="1" stop-color="rgb(6.840515%, 74.229431%, 80.66864%)" offset="0.28125"/><stop stop-opacity="1" stop-color="rgb(6.768799%, 74.034119%, 80.865479%)" offset="0.3125"/><stop stop-opacity="1" stop-color="rgb(6.697083%, 73.83728%, 81.060791%)" offset="0.34375"/><stop stop-opacity="1" stop-color="rgb(6.625366%, 73.641968%, 81.256104%)" offset="0.375"/><stop stop-opacity="1" stop-color="rgb(6.517029%, 73.348999%, 81.549072%)" offset="0.4375"/><stop stop-opacity="1" stop-color="rgb(6.408691%, 73.05603%, 81.842041%)" offset="0.46875"/><stop stop-opacity="1" stop-color="rgb(6.336975%, 72.860718%, 82.037354%)" offset="0.5"/><stop stop-opacity="1" stop-color="rgb(6.265259%, 72.665405%, 82.234192%)" offset="0.53125"/><stop stop-opacity="1" stop-color="rgb(6.193542%, 72.468567%, 82.429504%)" offset="0.5625"/><stop stop-opacity="1" stop-color="rgb(6.085205%, 72.175598%, 82.722473%)" offset="0.625"/><stop stop-opacity="1" stop-color="rgb(5.941772%, 71.784973%, 83.113098%)" offset="0.6875"/><stop stop-opacity="1" stop-color="rgb(5.833435%, 71.492004%, 83.406067%)" offset="0.71875"/><stop stop-opacity="1" stop-color="rgb(5.760193%, 71.296692%, 83.602905%)" offset="0.75"/><stop stop-opacity="1" stop-color="rgb(5.688477%, 71.099854%, 83.798218%)" offset="0.78125"/><stop stop-opacity="1" stop-color="rgb(5.61676%, 70.904541%, 83.99353%)" offset="0.8125"/><stop stop-opacity="1" stop-color="rgb(5.508423%, 70.611572%, 84.286499%)" offset="0.875"/><stop stop-opacity="1" stop-color="rgb(5.400085%, 70.318604%, 84.579468%)" offset="0.90625"/><stop stop-opacity="1" stop-color="rgb(5.328369%, 70.123291%, 84.77478%)" offset="0.9375"/><stop stop-opacity="1" stop-color="rgb(5.256653%, 69.927979%, 84.971619%)" offset="0.96875"/><stop stop-opacity="1" stop-color="rgb(5.184937%, 69.73114%, 85.166931%)" offset="0.984239"/><stop stop-opacity="1" stop-color="rgb(5.148315%, 69.633484%, 85.264587%)" offset="1"/></linearGradient></defs><g clip-path="url(#eff49f53ff)"><g clip-path="url(#200b8f8439)"><path fill="url(#2fad8cb356)" d="M 32.917969 44.027344 L 32.917969 287.25 L 344.980469 287.25 L 344.980469 44.027344 Z M 32.917969 44.027344 " fill-rule="nonzero"/></g></g><g clip-path="url(#8bab500ad1)"><g clip-path="url(#f93bc8676d)"><path fill="url(#f0499f11c0)" d="M 109.75 76.113281 L 109.75 141.429688 L 189.804688 141.429688 L 189.804688 76.113281 Z M 109.75 76.113281 " fill-rule="nonzero"/></g></g><g clip-path="url(#da3830f8e1)"><g clip-path="url(#c17e0071fc)"><path fill="url(#4a9d8c6bee)" d="M 122.792969 146.464844 L 122.792969 231.46875 L 207.820312 231.46875 L 207.820312 146.464844 Z M 122.792969 146.464844 " fill-rule="nonzero"/></g></g><g clip-path="url(#a6dc17fc1a)"><g clip-path="url(#0ec8c4eb70)"><path fill="url(#aeaf1707d6)" d="M 204.855469 188.507812 L 204.855469 250.035156 L 252.625 250.035156 L 252.625 188.507812 Z M 204.855469 188.507812 " fill-rule="nonzero"/></g></g></svg>